<?xml version="1.0" encoding="utf-8"?>
<!-- Generator: Adobe Illustrator 27.5.0, SVG Export Plug-In . SVG Version: 6.00 Build 0)  -->
<svg version="1.1" id="_x2DC_àð_x5F_1" xmlns="http://www.w3.org/2000/svg" xmlns:xlink="http://www.w3.org/1999/xlink" x="0px"
	 y="0px" viewBox="0 0 3000 3000" style="enable-background:new 0 0 3000 3000;" xml:space="preserve">
<rect style="fill:#FFFFFF;" width="3000" height="3000"/>
<g>
	<path style="fill:#ECECEC;" d="M2673.736,1500c0,279.143-97.45,535.522-260.189,737.004
		c-11.645,14.418-23.639,28.566-35.943,42.418c-214.998,241.894-528.495,394.322-877.598,394.322
		c-358.702,0-679.791-160.895-895.098-414.46c-5.344-6.287-10.608-12.627-15.818-19.021
		C424.777,2038.295,326.264,1780.65,326.264,1500c0-648.237,525.506-1173.743,1173.743-1173.743S2673.736,851.763,2673.736,1500z"/>
	<path style="fill:#9C9C9B;" d="M2377.605,2279.422c-214.998,241.894-528.495,394.322-877.598,394.322
		c-358.702,0-679.791-160.895-895.098-414.46c11.173-21.889,23.773-42.728,37.989-61.884
		c85.536-115.273,364.383-161.298,407.366-174.976c60.147-19.143,142.169-13.677,166.777-71.092
		c24.608-57.414,20.502-200.418,20.502-200.418s-86.949-91.311-120.752-235.123c-9.733-41.408-76.557-12.748-107.532-133.042
		c-30.625-118.881,40.21-84.688,41.893-83.867c-1.521-1.36-74.74-66.891-78.347-189.541
		c-3.648-123.929-12.762-260.633,61.062-378.194c73.811-117.562,229.644-188.64,276.127-199.584
		c46.47-10.931,114.829-30.073,185.907-30.073c71.091,0,136.704,19.142,194.119,51.949c57.414,32.806,139.423,54.682,177.708,65.613
		c38.272,10.945,103.884,57.414,153.1,158.579c49.216,101.151-65.613,478.444-65.613,478.444s54.681,19.129,27.341,101.152
		c-27.341,82.022-32.807,114.829-95.7,142.169c0,0-41.004,142.17-123.027,232.39c0,0-41.004,148.47,19.143,216.815
		c60.147,68.345,196.851,90.221,254.252,106.63c57.414,16.396,267.943,65.613,330.822,202.317
		C2371.264,2264.533,2374.455,2271.843,2377.605,2279.422z"/>
</g>
</svg>
