<?xml version="1.0" encoding="UTF-8"?>
<svg xmlns="http://www.w3.org/2000/svg" version="1.1" viewBox="0 0 3000 3000">
  <!-- Generator: Adobe Illustrator 28.7.7, SVG Export Plug-In . SVG Version: 1.2.0 Build 194)  -->
  <g>
    <g id="_x2DC_àð_x5F_1">
      <rect x="-.25" y=".417" width="3000" height="3000" style="fill: #fff;"/>
      <g>
        <path d="M2719.29,1500c0,160.86-31.15,314.44-87.75,455.04-.01.01,0,.01,0,.01-52.72,130.98-127.52,250.68-219.79,354.53-223.35,251.35-549.05,409.71-911.75,409.71-371.16,0-703.6-165.85-927.23-427.48-16.45-19.25-32.31-39.01-47.55-59.27-153.52-203.94-244.51-457.62-244.51-732.54s90.99-528.59,244.51-732.54c222.48-295.6,576.31-486.75,974.78-486.75,512.54,0,951.2,316.24,1131.54,764.24,0,0-.01,0,0,.01,56.6,140.6,87.75,294.18,87.75,455.04Z" style="fill: #e6e6e6;"/>
        <path d="M2312.44,2211.42c-201.42-123.96-232.41-161.4-322.79-158.82,0,0,25.17-67.14,0-115.56-14.35-27.58-14.24-48.88-17.57-67.11,13.22,14.56,22.66,32.65,28.94,51.24.4,1.42,2.51.85,2.22-.54-1.51-7.09-3.6-13.95-6.05-20.75-4.99-13.73-11.64-26.85-20.82-38.41-3.08-3.76-6.52-7.28-10.25-10.55-3.21-6.38-7.93-12.47-15.21-18.47-32.93-27.11-83.28-67.79-71.66-87.15,11.62-19.37,87.15-38.74,83.28-65.85-3.87-27.12-19.37-11.62-1.94-38.74,17.44-27.12,60.04-46.48,63.92-102.65,3.87-56.17-3.88-116.21-11.62-174.31-1.26-9.47-2.36-19.54-3.4-29.96,12.88,23.6,20.59,52.42,25.08,74.65.24,1.49,2.4,1.11,2.26-.29-2.49-21.78-7.11-43.21-14.39-63.96-3.74-10.37-8.19-20.6-14.1-30.24-.28-.46-.57-.9-.86-1.35-.94-10.48-1.88-21.2-2.87-32.03,1.27,1.75,2.51,3.53,3.65,5.38,4.78,7.95,8.74,17.03,9.51,26.33,0,.61.47,1.15,1.1,1.17.63.03,1.16-.46,1.19-1.09.19-5.16-.66-10.04-1.88-14.9-2.82-10.88-8.18-20.95-14.81-30-1.1-11.33-2.31-22.69-3.7-33.92,9.87,21.35,18.56,44.31,26.8,65.45.64,1.49,2.67.44,2.1-.9l-8.78-30.41c-2.22-7.06-13.2-45.13-25.38-69.91-1.93-10.93-4.11-21.54-6.7-31.57-15.49-60.04-77.47-213.05-129.77-267.28-52.29-54.23-153-106.53-201.42-106.53s-75.54-29.05-147.2-15.49c-71.66,13.56-267.28,126.54-321.51,211.76-54.23,85.22-123.09,210.03-143.75,352.06-20.66,142.03-1.29,233.71,27.76,307.31,29.05,73.59,114.27,137.51,92.97,292.45,0,0,30.56-71.66,25.39-148.27,0,0,22.37,39.58,9.48,108.42.46-1.75,17.15-64.88,12.9-90.34,0,0,45.62,16.35,44.76,92.1-.86,75.75-195.4,195.83-254.79,211.33-54.08,14.1-335.04,83.86-429.76,178.09,223.63,261.63,556.07,427.48,927.23,427.48,362.7,0,688.4-158.36,911.75-409.71-27.05-39.49-59.77-73.83-99.31-98.16ZM1767.78,1948.23c-16.36,7.75-12.92-17.22-12.92-37.88s56.62-59.1,61.12-39.59c5.17,22.38-31.85,69.72-48.2,77.47Z" style="fill: gray;"/>
      </g>
    </g>
  </g>
</svg>